<svg width="365" height="104" viewBox="0 0 365 104" fill="none" xmlns="http://www.w3.org/2000/svg">
<path d="M14.5703 67V15.8125H32.5C38.7109 15.8125 43.4219 17.0078 46.6328 19.3984C49.8438 21.7656 51.4492 25.2461 51.4492 29.8398C51.4492 32.3477 50.8047 34.5625 49.5156 36.4844C48.2266 38.3828 46.4336 39.7773 44.1367 40.668C46.7617 41.3242 48.8242 42.6484 50.3242 44.6406C51.8477 46.6328 52.6094 49.0703 52.6094 51.9531C52.6094 56.875 51.0391 60.6016 47.8984 63.1328C44.7578 65.6641 40.2812 66.9531 34.4688 67H14.5703ZM25.1172 44.7109V58.5273H34.1523C36.6367 58.5273 38.5703 57.9414 39.9531 56.7695C41.3594 55.5742 42.0625 53.9336 42.0625 51.8477C42.0625 47.1602 39.6367 44.7812 34.7852 44.7109H25.1172ZM25.1172 37.2578H32.9219C38.2422 37.1641 40.9023 35.043 40.9023 30.8945C40.9023 28.5742 40.2227 26.9102 38.8633 25.9023C37.5273 24.8711 35.4062 24.3555 32.5 24.3555H25.1172V37.2578ZM70.6094 67H60.4141V28.9609H70.6094V67ZM59.8164 19.1172C59.8164 17.5938 60.3203 16.3398 61.3281 15.3555C62.3594 14.3711 63.7539 13.8789 65.5117 13.8789C67.2461 13.8789 68.6289 14.3711 69.6602 15.3555C70.6914 16.3398 71.207 17.5938 71.207 19.1172C71.207 20.6641 70.6797 21.9297 69.625 22.9141C68.5938 23.8984 67.2227 24.3906 65.5117 24.3906C63.8008 24.3906 62.418 23.8984 61.3633 22.9141C60.332 21.9297 59.8164 20.6641 59.8164 19.1172ZM91.1758 19.6094V28.9609H97.6797V36.4141H91.1758V55.3984C91.1758 56.8047 91.4453 57.8125 91.9844 58.4219C92.5234 59.0312 93.5547 59.3359 95.0781 59.3359C96.2031 59.3359 97.1992 59.2539 98.0664 59.0898V66.7891C96.0742 67.3984 94.0234 67.7031 91.9141 67.7031C84.7891 67.7031 81.1562 64.1055 81.0156 56.9102V36.4141H75.4609V28.9609H81.0156V19.6094H91.1758ZM134.805 44.8164H114.555V58.5273H138.32V67H104.008V15.8125H138.25V24.3555H114.555V36.5547H134.805V44.8164ZM153.191 28.9609L153.508 33.3555C156.227 29.957 159.871 28.2578 164.441 28.2578C168.473 28.2578 171.473 29.4414 173.441 31.8086C175.41 34.1758 176.418 37.7148 176.465 42.4258V67H166.305V42.6719C166.305 40.5156 165.836 38.957 164.898 37.9961C163.961 37.0117 162.402 36.5195 160.223 36.5195C157.363 36.5195 155.219 37.7383 153.789 40.1758V67H143.629V28.9609H153.191ZM182.723 47.6992C182.723 41.8633 184.105 37.1641 186.871 33.6016C189.66 30.0391 193.41 28.2578 198.121 28.2578C202.293 28.2578 205.539 29.6875 207.859 32.5469L208.281 28.9609H217.492V65.7344C217.492 69.0625 216.73 71.957 215.207 74.418C213.707 76.8789 211.586 78.7539 208.844 80.043C206.102 81.332 202.891 81.9766 199.211 81.9766C196.422 81.9766 193.703 81.4141 191.055 80.2891C188.406 79.1875 186.402 77.7578 185.043 76L189.543 69.8125C192.074 72.6484 195.145 74.0664 198.754 74.0664C201.449 74.0664 203.547 73.3398 205.047 71.8867C206.547 70.457 207.297 68.418 207.297 65.7695V63.7305C204.953 66.3789 201.871 67.7031 198.051 67.7031C193.48 67.7031 189.777 65.9219 186.941 62.3594C184.129 58.7734 182.723 54.0273 182.723 48.1211V47.6992ZM192.883 48.4375C192.883 51.8828 193.574 54.5898 194.957 56.5586C196.34 58.5039 198.238 59.4766 200.652 59.4766C203.746 59.4766 205.961 58.3164 207.297 55.9961V40C205.938 37.6797 203.746 36.5195 200.723 36.5195C198.285 36.5195 196.363 37.5156 194.957 39.5078C193.574 41.5 192.883 44.4766 192.883 48.4375ZM247.375 67C246.906 66.0859 246.566 64.9492 246.355 63.5898C243.895 66.332 240.695 67.7031 236.758 67.7031C233.031 67.7031 229.938 66.625 227.477 64.4688C225.039 62.3125 223.82 59.5938 223.82 56.3125C223.82 52.2812 225.309 49.1875 228.285 47.0312C231.285 44.875 235.609 43.7852 241.258 43.7617H245.934V41.582C245.934 39.8242 245.477 38.418 244.562 37.3633C243.672 36.3086 242.254 35.7812 240.309 35.7812C238.598 35.7812 237.25 36.1914 236.266 37.0117C235.305 37.832 234.824 38.957 234.824 40.3867H224.664C224.664 38.1836 225.344 36.1445 226.703 34.2695C228.062 32.3945 229.984 30.9297 232.469 29.875C234.953 28.7969 237.742 28.2578 240.836 28.2578C245.523 28.2578 249.238 29.4414 251.98 31.8086C254.746 34.1523 256.129 37.457 256.129 41.7227V58.2109C256.152 61.8203 256.656 64.5508 257.641 66.4023V67H247.375ZM238.973 59.9336C240.473 59.9336 241.855 59.6055 243.121 58.9492C244.387 58.2695 245.324 57.3672 245.934 56.2422V49.7031H242.137C237.051 49.7031 234.344 51.4609 234.016 54.9766L233.98 55.5742C233.98 56.8398 234.426 57.8828 235.316 58.7031C236.207 59.5234 237.426 59.9336 238.973 59.9336ZM262.457 47.6992C262.457 41.8633 263.84 37.1641 266.605 33.6016C269.395 30.0391 273.145 28.2578 277.855 28.2578C282.027 28.2578 285.273 29.6875 287.594 32.5469L288.016 28.9609H297.227V65.7344C297.227 69.0625 296.465 71.957 294.941 74.418C293.441 76.8789 291.32 78.7539 288.578 80.043C285.836 81.332 282.625 81.9766 278.945 81.9766C276.156 81.9766 273.438 81.4141 270.789 80.2891C268.141 79.1875 266.137 77.7578 264.777 76L269.277 69.8125C271.809 72.6484 274.879 74.0664 278.488 74.0664C281.184 74.0664 283.281 73.3398 284.781 71.8867C286.281 70.457 287.031 68.418 287.031 65.7695V63.7305C284.688 66.3789 281.605 67.7031 277.785 67.7031C273.215 67.7031 269.512 65.9219 266.676 62.3594C263.863 58.7734 262.457 54.0273 262.457 48.1211V47.6992ZM272.617 48.4375C272.617 51.8828 273.309 54.5898 274.691 56.5586C276.074 58.5039 277.973 59.4766 280.387 59.4766C283.48 59.4766 285.695 58.3164 287.031 55.9961V40C285.672 37.6797 283.48 36.5195 280.457 36.5195C278.02 36.5195 276.098 37.5156 274.691 39.5078C273.309 41.5 272.617 44.4766 272.617 48.4375ZM322.574 67.7031C316.996 67.7031 312.449 65.9922 308.934 62.5703C305.441 59.1484 303.695 54.5898 303.695 48.8945V47.9102C303.695 44.0898 304.434 40.6797 305.91 37.6797C307.387 34.6562 309.473 32.3359 312.168 30.7188C314.887 29.0781 317.98 28.2578 321.449 28.2578C326.652 28.2578 330.742 29.8984 333.719 33.1797C336.719 36.4609 338.219 41.1133 338.219 47.1367V51.2852H313.996C314.324 53.7695 315.309 55.7617 316.949 57.2617C318.613 58.7617 320.711 59.5117 323.242 59.5117C327.156 59.5117 330.215 58.0938 332.418 55.2578L337.41 60.8477C335.887 63.0039 333.824 64.6914 331.223 65.9102C328.621 67.1055 325.738 67.7031 322.574 67.7031ZM321.414 36.4844C319.398 36.4844 317.758 37.1641 316.492 38.5234C315.25 39.8828 314.453 41.8281 314.102 44.3594H328.234V43.5508C328.188 41.3008 327.578 39.5664 326.406 38.3477C325.234 37.1055 323.57 36.4844 321.414 36.4844Z" fill="black"/>
<path d="M364 89L339.053 74.4748L338.947 103.342L364 89ZM90.9908 90.5L341.491 91.4176L341.509 86.4176L91.0092 85.5L90.9908 90.5Z" fill="black"/>
<path d="M4 80V89H340" stroke="black" stroke-width="7"/>
</svg>
